<?xml version="1.0" encoding="utf-8"?>
<!-- Generator: Adobe Illustrator 16.0.0, SVG Export Plug-In . SVG Version: 6.00 Build 0)  -->
<!DOCTYPE svg PUBLIC "-//W3C//DTD SVG 1.1//EN" "http://www.w3.org/Graphics/SVG/1.1/DTD/svg11.dtd">
<svg version="1.1" id="Layer_1" xmlns="http://www.w3.org/2000/svg" xmlns:xlink="http://www.w3.org/1999/xlink" x="0px" y="0px"
	 width="926px" height="495px" viewBox="0 0 926 495" enable-background="new 0 0 926 495" xml:space="preserve">
<rect x="690.5" y="230.5" fill="#FFFFFF" stroke="#000000" stroke-width="5" stroke-miterlimit="10" width="61" height="56"/>
<rect x="212" y="365" fill="#EDEDED" width="71" height="107"/>
<g>
	<rect x="54.5" y="131.5" fill="#FFFFFF" stroke="#000000" stroke-width="5" stroke-miterlimit="10" width="76" height="137"/>
	<rect x="64" y="158" fill="#EDEDED" width="57" height="11"/>
	<rect x="64" y="176" fill="#EDEDED" width="57" height="11"/>
	<rect x="64" y="243" fill="#828281" width="57" height="17"/>
	<circle fill="#EDEDED" cx="114" cy="206" r="7.5"/>
	<circle fill="#EDEDED" cx="114" cy="227" r="7.5"/>
	<rect x="64" y="200" fill="#EDEDED" width="36" height="11"/>
	<rect x="64" y="221" fill="#EDEDED" width="36" height="11"/>
	<circle cx="69" cy="145" r="4.9"/>
	<circle cx="87" cy="145" r="2.7"/>
	<circle cx="102" cy="145" r="2.8"/>
	<circle cx="117" cy="145" r="2.9"/>
</g>
<g>
	<rect x="212.5" y="131.5" fill="#FFFFFF" stroke="#000000" stroke-width="5" stroke-miterlimit="10" width="76" height="137"/>
	<rect x="222" y="158" fill="#EDEDED" width="57" height="37"/>
	<rect x="222" y="243" fill="#828281" width="57" height="17"/>
	<circle cx="244" cy="145" r="4.9"/>
	<circle cx="227" cy="145" r="2.7"/>
	<circle cx="260" cy="145" r="2.8"/>
	<circle cx="275" cy="145" r="2.9"/>
	<rect x="222" y="200" fill="#EDEDED" width="57" height="37"/>
</g>
<g>
	<rect x="368.5" y="131.5" fill="#FFFFFF" stroke="#000000" stroke-width="5" stroke-miterlimit="10" width="76" height="137"/>
	<rect x="378" y="158" fill="#EDEDED" width="57" height="11"/>
	<rect x="378" y="176" fill="#EDEDED" width="57" height="11"/>
	<rect x="378" y="243" fill="#828281" width="57" height="17"/>
	<circle fill="#EDEDED" cx="428" cy="206" r="7.5"/>
	<circle fill="#EDEDED" cx="428" cy="227" r="7.5"/>
	<rect x="378" y="200" fill="#EDEDED" width="36" height="11"/>
	<rect x="378" y="221" fill="#EDEDED" width="36" height="11"/>
	<circle cx="430" cy="145" r="4.9"/>
	<circle cx="412" cy="145" r="2.7"/>
	<circle cx="397" cy="145" r="2.8"/>
	<circle cx="382" cy="145" r="2.9"/>
</g>
<rect x="31.5" y="52.5" fill="none" stroke="#000000" stroke-width="5" stroke-miterlimit="10" width="463" height="234"/>
<text transform="matrix(1 0 0 1 45 74)"><tspan x="0" y="0" font-family="'MyriadPro-Regular'" font-size="13">f</tspan><tspan x="3.6" y="0" font-family="'MyriadPro-Regular'" font-size="13">o</tspan><tspan x="10.8" y="0" font-family="'MyriadPro-Regular'" font-size="13">r</tspan><tspan x="15.1" y="0" font-family="'MyriadPro-Regular'" font-size="13">m.</tspan><tspan x="28.6" y="0" font-family="'MyriadPro-Regular'" font-size="13">c</tspan><tspan x="34.3" y="0" font-family="'MyriadPro-Regular'" font-size="13">o</tspan><tspan x="41.5" y="0" font-family="'MyriadPro-Regular'" font-size="13">n</tspan><tspan x="48.6" y="0" font-family="'MyriadPro-Regular'" font-size="13">t</tspan><tspan x="52.9" y="0" font-family="'MyriadPro-Regular'" font-size="13">r</tspan><tspan x="57.1" y="0" font-family="'MyriadPro-Regular'" font-size="13">olle</tspan><tspan x="76.9" y="0" font-family="'MyriadPro-Regular'" font-size="13">r</tspan><tspan x="80.4" y="0" font-family="'MyriadPro-Regular'" font-size="13">.js</tspan></text>
<text transform="matrix(1 0 0 1 53.5 119)"><tspan x="0" y="0" font-family="'MyriadPro-Regular'" font-size="13">s</tspan><tspan x="5.1" y="0" font-family="'MyriadPro-Regular'" font-size="13">t</tspan><tspan x="9.4" y="0" font-family="'MyriadPro-Regular'" font-size="13">ep1.</tspan><tspan x="32.6" y="0" font-family="'MyriadPro-Regular'" font-size="13">c</tspan><tspan x="38.4" y="0" font-family="'MyriadPro-Regular'" font-size="13">o</tspan><tspan x="45.5" y="0" font-family="'MyriadPro-Regular'" font-size="13">n</tspan><tspan x="52.7" y="0" font-family="'MyriadPro-Regular'" font-size="13">t</tspan><tspan x="57" y="0" font-family="'MyriadPro-Regular'" font-size="13">r</tspan><tspan x="61.1" y="0" font-family="'MyriadPro-Regular'" font-size="13">olle</tspan><tspan x="80.9" y="0" font-family="'MyriadPro-Regular'" font-size="13">r</tspan><tspan x="84.5" y="0" font-family="'MyriadPro-Regular'" font-size="13">.js</tspan></text>
<circle cx="344" cy="199" r="2.7"/>
<circle cx="329" cy="199" r="2.8"/>
<circle cx="314" cy="199" r="2.9"/>
<text transform="matrix(1 0 0 1 209.5 119)"><tspan x="0" y="0" font-family="'MyriadPro-Regular'" font-size="13">s</tspan><tspan x="5.1" y="0" font-family="'MyriadPro-Regular'" font-size="13">t</tspan><tspan x="9.4" y="0" font-family="'MyriadPro-Regular'" font-size="13">ep2.</tspan><tspan x="32.6" y="0" font-family="'MyriadPro-Regular'" font-size="13">c</tspan><tspan x="38.4" y="0" font-family="'MyriadPro-Regular'" font-size="13">o</tspan><tspan x="45.5" y="0" font-family="'MyriadPro-Regular'" font-size="13">n</tspan><tspan x="52.7" y="0" font-family="'MyriadPro-Regular'" font-size="13">t</tspan><tspan x="57" y="0" font-family="'MyriadPro-Regular'" font-size="13">r</tspan><tspan x="61.1" y="0" font-family="'MyriadPro-Regular'" font-size="13">olle</tspan><tspan x="80.9" y="0" font-family="'MyriadPro-Regular'" font-size="13">r</tspan><tspan x="84.5" y="0" font-family="'MyriadPro-Regular'" font-size="13">.js</tspan></text>
<text transform="matrix(1 0 0 1 365.5 119)"><tspan x="0" y="0" font-family="'MyriadPro-Regular'" font-size="13">s</tspan><tspan x="5.1" y="0" font-family="'MyriadPro-Regular'" font-size="13">t</tspan><tspan x="9.4" y="0" font-family="'MyriadPro-Regular'" font-size="13">ep6.</tspan><tspan x="32.6" y="0" font-family="'MyriadPro-Regular'" font-size="13">c</tspan><tspan x="38.4" y="0" font-family="'MyriadPro-Regular'" font-size="13">o</tspan><tspan x="45.5" y="0" font-family="'MyriadPro-Regular'" font-size="13">n</tspan><tspan x="52.7" y="0" font-family="'MyriadPro-Regular'" font-size="13">t</tspan><tspan x="57" y="0" font-family="'MyriadPro-Regular'" font-size="13">r</tspan><tspan x="61.1" y="0" font-family="'MyriadPro-Regular'" font-size="13">olle</tspan><tspan x="80.9" y="0" font-family="'MyriadPro-Regular'" font-size="13">r</tspan><tspan x="84.5" y="0" font-family="'MyriadPro-Regular'" font-size="13">.js</tspan></text>
<g>
	<g>
		<line fill="none" stroke="#00BAA8" stroke-width="5" stroke-miterlimit="10" x1="250.5" y1="222" x2="250.5" y2="322"/>
		<g>
			<circle fill="#00BAA8" cx="250.5" cy="222" r="6.6"/>
		</g>
		<g>
			<polygon fill="#00BAA8" points="241.8,319 250.5,334.1 259.2,319 			"/>
		</g>
	</g>
</g>
<rect x="212" y="384" fill="#BABABA" width="71" height="44"/>
<text transform="matrix(1 0 0 1 212 356.332)"><tspan x="0" y="0" font-family="'MyriadPro-Regular'" font-size="13">r</tspan><tspan x="4.1" y="0" font-family="'MyriadPro-Regular'" font-size="13">oom.di</tspan><tspan x="42.3" y="0" font-family="'MyriadPro-Regular'" font-size="13">r</tspan><tspan x="46.4" y="0" font-family="'MyriadPro-Regular'" font-size="13">e</tspan><tspan x="52.9" y="0" font-family="'MyriadPro-Regular'" font-size="13">c</tspan><tspan x="58.9" y="0" font-family="'MyriadPro-Regular'" font-size="13">ti</tspan><tspan x="66.3" y="0" font-family="'MyriadPro-Regular'" font-size="13">v</tspan><tspan x="72.4" y="0" font-family="'MyriadPro-Regular'" font-size="13">e</tspan><tspan x="78.8" y="0" font-family="'MyriadPro-Regular'" font-size="13">.js</tspan></text>
<text transform="matrix(1 0 0 1 292.5 394)"><tspan x="0" y="0" font-family="'MyriadPro-Regular'" font-size="13">galle</tspan><tspan x="26.2" y="0" font-family="'MyriadPro-Regular'" font-size="13">r</tspan><tspan x="30.8" y="0" font-family="'MyriadPro-Regular'" font-size="13">y</tspan><tspan x="36.4" y="0" font-family="'MyriadPro-Regular'" font-size="13">.di</tspan><tspan x="49.4" y="0" font-family="'MyriadPro-Regular'" font-size="13">r</tspan><tspan x="53.6" y="0" font-family="'MyriadPro-Regular'" font-size="13">e</tspan><tspan x="60.1" y="0" font-family="'MyriadPro-Regular'" font-size="13">c</tspan><tspan x="66.1" y="0" font-family="'MyriadPro-Regular'" font-size="13">ti</tspan><tspan x="73.4" y="0" font-family="'MyriadPro-Regular'" font-size="13">v</tspan><tspan x="79.5" y="0" font-family="'MyriadPro-Regular'" font-size="13">e</tspan><tspan x="85.9" y="0" font-family="'MyriadPro-Regular'" font-size="13">.js</tspan></text>
<rect x="217" y="369" fill="#DCDCDC" width="61" height="11"/>
<rect x="217" y="433" fill="#DCDCDC" width="61" height="11"/>
<rect x="217" y="452" fill="#828281" width="61" height="15"/>
<text transform="matrix(1 0 0 1 31.5 28)"><tspan x="0" y="0" font-family="'MyriadPro-Regular'" font-size="13">ind</tspan><tspan x="17.6" y="0" font-family="'MyriadPro-Regular'" font-size="13">e</tspan><tspan x="24.1" y="0" font-family="'MyriadPro-Regular'" font-size="13">x.js</tspan></text>
<g>
	<g>
		<line fill="none" stroke="#00BAA8" stroke-width="5" stroke-miterlimit="10" x1="92.5" y1="222" x2="92.5" y2="322"/>
		<g>
			<circle fill="#00BAA8" cx="92.5" cy="222" r="6.6"/>
		</g>
		<g>
			<polygon fill="#00BAA8" points="83.8,319 92.5,334.1 101.2,319 			"/>
		</g>
	</g>
</g>
<rect x="519.5" y="338.5" fill="#FFFFFF" stroke="#000000" stroke-width="5" stroke-miterlimit="10" width="131" height="60"/>
<text transform="matrix(1 0 0 1 519.5 325)"><tspan x="0" y="0" font-family="'MyriadPro-Regular'" font-size="13">boo</tspan><tspan x="21.7" y="0" font-family="'MyriadPro-Regular'" font-size="13">k</tspan><tspan x="28" y="0" font-family="'MyriadPro-Regular'" font-size="13">ingD</tspan><tspan x="54.2" y="0" font-family="'MyriadPro-Regular'" font-size="13">a</tspan><tspan x="60.4" y="0" font-family="'MyriadPro-Regular'" font-size="13">ta.se</tspan><tspan x="85.3" y="0" font-family="'MyriadPro-Regular'" font-size="13">r</tspan><tspan x="89.9" y="0" font-family="'MyriadPro-Regular'" font-size="13">vi</tspan><tspan x="99.2" y="0" font-family="'MyriadPro-Regular'" font-size="13">c</tspan><tspan x="104.9" y="0" font-family="'MyriadPro-Regular'" font-size="13">e</tspan><tspan x="111.3" y="0" font-family="'MyriadPro-Regular'" font-size="13">.js</tspan></text>
<text transform="matrix(1 0 0 1 519.5098 459)"><tspan x="0" y="0" font-family="'MyriadPro-Regular'" font-size="13">L</tspan><tspan x="6" y="0" font-family="'MyriadPro-Regular'" font-size="13">ocal </tspan><tspan x="31" y="0" font-family="'MyriadPro-Regular'" font-size="13">S</tspan><tspan x="37.4" y="0" font-family="'MyriadPro-Regular'" font-size="13">t</tspan><tspan x="41.6" y="0" font-family="'MyriadPro-Regular'" font-size="13">o</tspan><tspan x="48.7" y="0" font-family="'MyriadPro-Regular'" font-size="13">r</tspan><tspan x="52.9" y="0" font-family="'MyriadPro-Regular'" font-size="13">age</tspan></text>
<g>
	<g>
		<line fill="none" stroke="#00BAA8" stroke-width="5" stroke-miterlimit="10" x1="555.5" y1="388" x2="555.5" y2="427"/>
		<g>
			<polygon fill="#00BAA8" points="547.3,391 556,375.9 564.7,391 			"/>
		</g>
		<g>
			<polygon fill="#00BAA8" points="547.3,424 556,439.1 564.7,424 			"/>
		</g>
	</g>
</g>
<text transform="matrix(1 0 0 1 802.5098 264)"><tspan x="0" y="0" font-family="'MyriadPro-Regular'" font-size="13">3</tspan><tspan x="6.7" y="0" font-family="'MyriadPro-Regular'" font-size="13">r</tspan><tspan x="10.8" y="0" font-family="'MyriadPro-Regular'" font-size="13">d pa</tspan><tspan x="34.5" y="0" font-family="'MyriadPro-Regular'" font-size="13">r</tspan><tspan x="39.1" y="0" font-family="'MyriadPro-Regular'" font-size="13">t</tspan><tspan x="43.5" y="0" font-family="'MyriadPro-Regular'" font-size="13">y API</tspan></text>
<g>
	<g>
		<line fill="none" stroke="#00BAA8" stroke-width="5" stroke-miterlimit="10" x1="740" y1="259.5" x2="779" y2="259.5"/>
		<g>
			<polygon fill="#00BAA8" points="743,268.2 727.9,259.5 743,250.8 			"/>
		</g>
		<g>
			<polygon fill="#00BAA8" points="777,268.2 792.1,259.5 777,250.8 			"/>
		</g>
	</g>
</g>
<text transform="matrix(1 0 0 1 760.4951 347.5)"><tspan x="0" y="0" font-family="'MyriadPro-Regular'" font-size="13">boo</tspan><tspan x="21.7" y="0" font-family="'MyriadPro-Regular'" font-size="13">k</tspan><tspan x="28" y="0" font-family="'MyriadPro-Regular'" font-size="13">ing</tspan><tspan x="45.5" y="0" font-family="'MyriadPro-Regular'" font-size="13">M</tspan><tspan x="56" y="0" font-family="'MyriadPro-Regular'" font-size="13">odel</tspan><tspan x="80.1" y="0" font-family="'MyriadPro-Regular'" font-size="13">s</tspan><tspan x="85.1" y="0" font-family="'MyriadPro-Regular'" font-size="13">.se</tspan><tspan x="99.4" y="0" font-family="'MyriadPro-Regular'" font-size="13">r</tspan><tspan x="104" y="0" font-family="'MyriadPro-Regular'" font-size="13">vi</tspan><tspan x="113.3" y="0" font-family="'MyriadPro-Regular'" font-size="13">c</tspan><tspan x="119.1" y="0" font-family="'MyriadPro-Regular'" font-size="13">e</tspan><tspan x="125.4" y="0" font-family="'MyriadPro-Regular'" font-size="13">.js</tspan></text>
<text transform="matrix(1 0 0 1 37.5 357)"><tspan x="0" y="0" font-family="'MyriadPro-Regular'" font-size="13">p</tspan><tspan x="7.4" y="0" font-family="'MyriadPro-Regular'" font-size="13">r</tspan><tspan x="11.5" y="0" font-family="'MyriadPro-Regular'" font-size="13">o</tspan><tspan x="18.7" y="0" font-family="'MyriadPro-Regular'" font-size="13">g</tspan><tspan x="25.8" y="0" font-family="'MyriadPro-Regular'" font-size="13">r</tspan><tspan x="30" y="0" font-family="'MyriadPro-Regular'" font-size="13">es</tspan><tspan x="41.6" y="0" font-family="'MyriadPro-Regular'" font-size="13">s</tspan><tspan x="46.6" y="0" font-family="'MyriadPro-Regular'" font-size="13">.di</tspan><tspan x="59.7" y="0" font-family="'MyriadPro-Regular'" font-size="13">r</tspan><tspan x="63.8" y="0" font-family="'MyriadPro-Regular'" font-size="13">e</tspan><tspan x="70.3" y="0" font-family="'MyriadPro-Regular'" font-size="13">c</tspan><tspan x="76.3" y="0" font-family="'MyriadPro-Regular'" font-size="13">ti</tspan><tspan x="83.7" y="0" font-family="'MyriadPro-Regular'" font-size="13">v</tspan><tspan x="89.8" y="0" font-family="'MyriadPro-Regular'" font-size="13">e</tspan><tspan x="96.1" y="0" font-family="'MyriadPro-Regular'" font-size="13">.js</tspan><tspan x="0" y="15.6" font-family="'MyriadPro-Regular'" font-size="13">f</tspan><tspan x="3.6" y="15.6" font-family="'MyriadPro-Regular'" font-size="13">oo</tspan><tspan x="17.9" y="15.6" font-family="'MyriadPro-Regular'" font-size="13">t</tspan><tspan x="22.1" y="15.6" font-family="'MyriadPro-Regular'" font-size="13">e</tspan><tspan x="28.6" y="15.6" font-family="'MyriadPro-Regular'" font-size="13">r</tspan><tspan x="32.2" y="15.6" font-family="'MyriadPro-Regular'" font-size="13">.di</tspan><tspan x="45.3" y="15.6" font-family="'MyriadPro-Regular'" font-size="13">r</tspan><tspan x="49.4" y="15.6" font-family="'MyriadPro-Regular'" font-size="13">e</tspan><tspan x="55.9" y="15.6" font-family="'MyriadPro-Regular'" font-size="13">c</tspan><tspan x="61.9" y="15.6" font-family="'MyriadPro-Regular'" font-size="13">ti</tspan><tspan x="69.2" y="15.6" font-family="'MyriadPro-Regular'" font-size="13">v</tspan><tspan x="75.4" y="15.6" font-family="'MyriadPro-Regular'" font-size="13">e</tspan><tspan x="81.7" y="15.6" font-family="'MyriadPro-Regular'" font-size="13">.js</tspan><tspan x="0" y="31.2" font-family="'MyriadPro-Regular'" font-size="13">heade</tspan><tspan x="33.8" y="31.2" font-family="'MyriadPro-Regular'" font-size="13">r</tspan><tspan x="37.4" y="31.2" font-family="'MyriadPro-Regular'" font-size="13">.di</tspan><tspan x="50.5" y="31.2" font-family="'MyriadPro-Regular'" font-size="13">r</tspan><tspan x="54.6" y="31.2" font-family="'MyriadPro-Regular'" font-size="13">e</tspan><tspan x="61.1" y="31.2" font-family="'MyriadPro-Regular'" font-size="13">c</tspan><tspan x="67.1" y="31.2" font-family="'MyriadPro-Regular'" font-size="13">ti</tspan><tspan x="74.4" y="31.2" font-family="'MyriadPro-Regular'" font-size="13">v</tspan><tspan x="80.6" y="31.2" font-family="'MyriadPro-Regular'" font-size="13">e</tspan><tspan x="86.9" y="31.2" font-family="'MyriadPro-Regular'" font-size="13">.js</tspan><tspan x="0" y="46.8" font-family="'MyriadPro-Regular'" font-size="13">d</tspan><tspan x="7.3" y="46.8" font-family="'MyriadPro-Regular'" font-size="13">a</tspan><tspan x="13.5" y="46.8" font-family="'MyriadPro-Regular'" font-size="13">t</tspan><tspan x="17.8" y="46.8" font-family="'MyriadPro-Regular'" font-size="13">e</tspan><tspan x="24.3" y="46.8" font-family="'MyriadPro-Regular'" font-size="13">P</tspan><tspan x="31" y="46.8" font-family="'MyriadPro-Regular'" font-size="13">icke</tspan><tspan x="52.5" y="46.8" font-family="'MyriadPro-Regular'" font-size="13">r</tspan><tspan x="56" y="46.8" font-family="'MyriadPro-Regular'" font-size="13">.di</tspan><tspan x="69.1" y="46.8" font-family="'MyriadPro-Regular'" font-size="13">r</tspan><tspan x="73.2" y="46.8" font-family="'MyriadPro-Regular'" font-size="13">e</tspan><tspan x="79.7" y="46.8" font-family="'MyriadPro-Regular'" font-size="13">c</tspan><tspan x="85.7" y="46.8" font-family="'MyriadPro-Regular'" font-size="13">ti</tspan><tspan x="93.1" y="46.8" font-family="'MyriadPro-Regular'" font-size="13">v</tspan><tspan x="99.2" y="46.8" font-family="'MyriadPro-Regular'" font-size="13">e</tspan><tspan x="105.5" y="46.8" font-family="'MyriadPro-Regular'" font-size="13">.js</tspan><tspan x="0" y="62.4" font-family="'MyriadPro-Regular'" font-size="13">...</tspan></text>
<text transform="matrix(1 0 0 1 690.5 216.5)"><tspan x="0" y="0" font-family="'MyriadPro-Regular'" font-size="13">R</tspan><tspan x="7" y="0" font-family="'MyriadPro-Regular'" font-size="13">oom</tspan><tspan x="32.2" y="0" font-family="'MyriadPro-Regular'" font-size="13">s</tspan><tspan x="37.2" y="0" font-family="'MyriadPro-Regular'" font-size="13">.se</tspan><tspan x="51.5" y="0" font-family="'MyriadPro-Regular'" font-size="13">r</tspan><tspan x="56.1" y="0" font-family="'MyriadPro-Regular'" font-size="13">vi</tspan><tspan x="65.4" y="0" font-family="'MyriadPro-Regular'" font-size="13">c</tspan><tspan x="71.1" y="0" font-family="'MyriadPro-Regular'" font-size="13">e</tspan><tspan x="77.5" y="0" font-family="'MyriadPro-Regular'" font-size="13">.js</tspan></text>
<g>
	<text transform="matrix(1 0 0 1 521 216.5)"><tspan x="0" y="0" font-family="'MyriadPro-Regular'" font-size="13">r</tspan><tspan x="4.1" y="0" font-family="'MyriadPro-Regular'" font-size="13">ooms</tspan><tspan x="34.4" y="0" font-family="'MyriadPro-Regular'" font-size="13">A</tspan><tspan x="42.1" y="0" font-family="'MyriadPro-Regular'" font-size="13">v</tspan><tspan x="48.3" y="0" font-family="'MyriadPro-Regular'" font-size="13">ailabili</tspan><tspan x="83.5" y="0" font-family="'MyriadPro-Regular'" font-size="13">t</tspan><tspan x="87.9" y="0" font-family="'MyriadPro-Regular'" font-size="13">y</tspan><tspan x="93.5" y="0" font-family="'MyriadPro-Regular'" font-size="13">.se</tspan><tspan x="107.8" y="0" font-family="'MyriadPro-Regular'" font-size="13">r</tspan><tspan x="112.4" y="0" font-family="'MyriadPro-Regular'" font-size="13">vi</tspan><tspan x="121.7" y="0" font-family="'MyriadPro-Regular'" font-size="13">c</tspan><tspan x="127.5" y="0" font-family="'MyriadPro-Regular'" font-size="13">e</tspan><tspan x="133.8" y="0" font-family="'MyriadPro-Regular'" font-size="13">.js</tspan></text>
</g>
<rect x="520.5" y="230.5" fill="#FFFFFF" stroke="#000000" stroke-width="5" stroke-miterlimit="10" width="130" height="56"/>
<g>
	<g>
		<line fill="none" stroke="#00BAA8" stroke-width="5" stroke-miterlimit="10" x1="640" y1="259.5" x2="701" y2="259.5"/>
		<g>
			<polygon fill="#00BAA8" points="643,268.2 627.9,259.5 643,250.8 			"/>
		</g>
		<g>
			<polygon fill="#00BAA8" points="699,268.2 714.1,259.5 699,250.8 			"/>
		</g>
	</g>
</g>
<rect x="519.5" y="133.5" fill="none" stroke="#000000" stroke-width="5" stroke-miterlimit="10" width="61" height="56"/>
<rect x="690.5" y="338.5" fill="#FFFFFF" stroke="#000000" stroke-width="5" stroke-miterlimit="10" width="61" height="56"/>
<g>
	<g>
		<line fill="none" stroke="#00BAA8" stroke-width="5" stroke-miterlimit="10" x1="640" y1="367.5" x2="701" y2="367.5"/>
		<g>
			<polygon fill="#00BAA8" points="643,376.2 627.9,367.5 643,358.8 			"/>
		</g>
		<g>
			<polygon fill="#00BAA8" points="699,376.2 714.1,367.5 699,358.8 			"/>
		</g>
	</g>
</g>
<g>
	<g>
		<line fill="none" stroke="#00BAA8" stroke-width="5" stroke-miterlimit="10" x1="484" y1="160.5" x2="530" y2="160.5"/>
		<g>
			<polygon fill="#00BAA8" points="487,169.2 471.9,160.5 487,151.8 			"/>
		</g>
		<g>
			<polygon fill="#00BAA8" points="528,169.2 543.1,160.5 528,151.8 			"/>
		</g>
	</g>
</g>
<g>
	<g>
		<line fill="none" stroke="#00BAA8" stroke-width="5" stroke-miterlimit="10" x1="554.5" y1="98" x2="554.5" y2="145"/>
		<g>
			<polygon fill="#00BAA8" points="545.5,101 554.2,85.9 563,101 			"/>
		</g>
		<g>
			<polygon fill="#00BAA8" points="545.5,142 554.2,157.1 563,142 			"/>
		</g>
	</g>
</g>
<g>
	<text transform="matrix(1 0 0 1 593.5 142)"><tspan x="0" y="0" font-family="'MyriadPro-Regular'" font-size="13">session</tspan><tspan x="39.4" y="0" font-family="'MyriadPro-Regular'" font-size="13">M</tspan><tspan x="49.9" y="0" font-family="'MyriadPro-Regular'" font-size="13">anage</tspan><tspan x="83.4" y="0" font-family="'MyriadPro-Regular'" font-size="13">r</tspan><tspan x="87" y="0" font-family="'MyriadPro-Regular'" font-size="13">.se</tspan><tspan x="101.3" y="0" font-family="'MyriadPro-Regular'" font-size="13">r</tspan><tspan x="105.9" y="0" font-family="'MyriadPro-Regular'" font-size="13">vi</tspan><tspan x="115.2" y="0" font-family="'MyriadPro-Regular'" font-size="13">c</tspan><tspan x="120.9" y="0" font-family="'MyriadPro-Regular'" font-size="13">e</tspan><tspan x="127.3" y="0" font-family="'MyriadPro-Regular'" font-size="13">.js</tspan></text>
</g>
<text transform="matrix(1 0 0 1 593.5 61)"><tspan x="0" y="0" font-family="'MyriadPro-Regular'" font-size="13">o</tspan><tspan x="7" y="0" font-family="'MyriadPro-Regular'" font-size="13">v</tspan><tspan x="13.2" y="0" font-family="'MyriadPro-Regular'" font-size="13">e</tspan><tspan x="19.7" y="0" font-family="'MyriadPro-Regular'" font-size="13">r</tspan><tspan x="24" y="0" font-family="'MyriadPro-Regular'" font-size="13">l</tspan><tspan x="27.1" y="0" font-family="'MyriadPro-Regular'" font-size="13">a</tspan><tspan x="33.2" y="0" font-family="'MyriadPro-Regular'" font-size="13">y</tspan><tspan x="38.8" y="0" font-family="'MyriadPro-Regular'" font-size="13">.di</tspan><tspan x="51.9" y="0" font-family="'MyriadPro-Regular'" font-size="13">r</tspan><tspan x="56" y="0" font-family="'MyriadPro-Regular'" font-size="13">e</tspan><tspan x="62.5" y="0" font-family="'MyriadPro-Regular'" font-size="13">c</tspan><tspan x="68.5" y="0" font-family="'MyriadPro-Regular'" font-size="13">ti</tspan><tspan x="75.9" y="0" font-family="'MyriadPro-Regular'" font-size="13">v</tspan><tspan x="82" y="0" font-family="'MyriadPro-Regular'" font-size="13">e</tspan><tspan x="88.3" y="0" font-family="'MyriadPro-Regular'" font-size="13">.js</tspan></text>
<rect x="519.5" y="53.5" fill="none" stroke="#000000" stroke-width="5" stroke-miterlimit="10" width="61" height="56"/>
<g>
	<g>
		<line fill="none" stroke="#00BAA8" stroke-width="5" stroke-miterlimit="10" x1="484" y1="258.5" x2="530" y2="258.5"/>
		<g>
			<polygon fill="#00BAA8" points="487,267.2 471.9,258.5 487,249.8 			"/>
		</g>
		<g>
			<polygon fill="#00BAA8" points="528,267.2 543.1,258.5 528,249.8 			"/>
		</g>
	</g>
</g>
</svg>
