<?xml version="1.0" encoding="utf-8"?>
<!-- Generator: Adobe Illustrator 16.0.0, SVG Export Plug-In . SVG Version: 6.00 Build 0)  -->
<!DOCTYPE svg PUBLIC "-//W3C//DTD SVG 1.1//EN" "http://www.w3.org/Graphics/SVG/1.1/DTD/svg11.dtd">
<svg version="1.1" id="Layer_1" xmlns="http://www.w3.org/2000/svg" xmlns:xlink="http://www.w3.org/1999/xlink" x="0px" y="0px"
	 width="861px" height="495px" viewBox="0 0 861 495" enable-background="new 0 0 861 495" xml:space="preserve">
<g>
	<g>
		<line fill="none" stroke="#00BAA8" stroke-width="5" stroke-miterlimit="10" x1="500" y1="75.5" x2="546" y2="75.5"/>
		<g>
			<polygon fill="#00BAA8" points="503,84.2 487.9,75.5 503,66.8 			"/>
		</g>
		<g>
			<polygon fill="#00BAA8" points="544,84.2 559.1,75.5 544,66.8 			"/>
		</g>
	</g>
</g>
<rect x="360.5" y="224.5" fill="none" stroke="#000000" stroke-width="5" stroke-miterlimit="10" width="463" height="234"/>
<text transform="matrix(1 0 0 1 358.5 209)"><tspan x="0" y="0" font-family="'MyriadPro-Regular'" font-size="13">W</tspan><tspan x="10.6" y="0" font-family="'MyriadPro-Regular'" font-size="13">eb applic</tspan><tspan x="60.2" y="0" font-family="'MyriadPro-Regular'" font-size="13">a</tspan><tspan x="66.4" y="0" font-family="'MyriadPro-Regular'" font-size="13">tion UI</tspan></text>
<g>
	<rect x="154.5" y="263.5" fill="#FFFFFF" stroke="#000000" stroke-width="5" stroke-miterlimit="10" width="76" height="137"/>
	<rect x="164" y="274" fill="#EDEDED" width="57" height="101"/>
	<circle fill="#EDEDED" cx="192" cy="387" r="7.5"/>
</g>
<g>
	<rect x="34.5" y="263.5" fill="#FFFFFF" stroke="#000000" stroke-width="5" stroke-miterlimit="10" width="76" height="137"/>
	<rect x="44" y="274" fill="#EDEDED" width="57" height="101"/>
	<circle fill="#EDEDED" cx="72" cy="387" r="7.5"/>
</g>
<text transform="matrix(1 0 0 1 152.5 247.5)"><tspan x="0" y="0" font-family="'MyriadPro-Regular'" font-size="13">D</tspan><tspan x="8.7" y="0" font-family="'MyriadPro-Regular'" font-size="13">evi</tspan><tspan x="24.5" y="0" font-family="'MyriadPro-Regular'" font-size="13">c</tspan><tspan x="30.3" y="0" font-family="'MyriadPro-Regular'" font-size="13">e 2</tspan></text>
<text transform="matrix(1 0 0 1 32.1626 247.5)"><tspan x="0" y="0" font-family="'MyriadPro-Regular'" font-size="13">D</tspan><tspan x="8.7" y="0" font-family="'MyriadPro-Regular'" font-size="13">evi</tspan><tspan x="24.5" y="0" font-family="'MyriadPro-Regular'" font-size="13">c</tspan><tspan x="30.3" y="0" font-family="'MyriadPro-Regular'" font-size="13">e 1</tspan></text>
<text transform="matrix(1 0 0 1 34.1626 46)"><tspan x="0" y="0" font-family="'MyriadPro-Regular'" font-size="13">F</tspan><tspan x="6" y="0" font-family="'MyriadPro-Regular'" font-size="13">i</tspan><tspan x="9" y="0" font-family="'MyriadPro-Regular'" font-size="13">r</tspan><tspan x="13.2" y="0" font-family="'MyriadPro-Regular'" font-size="13">ebase</tspan></text>
<g>
	<g>
		<line fill="none" stroke="#00BAA8" stroke-width="5" stroke-miterlimit="10" x1="192.5" y1="114" x2="192.5" y2="209"/>
		<g>
			<polygon fill="#00BAA8" points="183.5,117 192.2,101.9 201,117 			"/>
		</g>
		<g>
			<polygon fill="#00BAA8" points="183.5,206 192.2,221.1 201,206 			"/>
		</g>
	</g>
</g>
<rect x="35.5" y="59.5" fill="#FFFFFF" stroke="#000000" stroke-width="5" stroke-miterlimit="10" width="444" height="33"/>
<g>
	<g>
		<line fill="none" stroke="#00BAA8" stroke-width="5" stroke-miterlimit="10" x1="79.5" y1="114" x2="79.5" y2="209"/>
		<g>
			<polygon fill="#00BAA8" points="70.5,117 79.2,101.9 88,117 			"/>
		</g>
		<g>
			<polygon fill="#00BAA8" points="70.5,206 79.2,221.1 88,206 			"/>
		</g>
	</g>
</g>
<g>
	<g>
		<line fill="none" stroke="#00BAA8" stroke-width="5" stroke-miterlimit="10" x1="419.5" y1="114" x2="419.5" y2="173"/>
		<g>
			<polygon fill="#00BAA8" points="410.5,117 419.2,101.9 428,117 			"/>
		</g>
		<g>
			<polygon fill="#00BAA8" points="410.5,170 419.2,185.1 428,170 			"/>
		</g>
	</g>
</g>
<rect x="388" y="283" fill="#EDEDED" width="57" height="11"/>
<rect x="388" y="301" fill="#EDEDED" width="57" height="11"/>
<rect x="745" y="422" fill="#828281" width="57" height="17"/>
<circle fill="#EDEDED" cx="788.8" cy="256" r="12.7"/>
<rect x="704" y="246" fill="#EDEDED" width="61" height="18"/>
<rect x="388" y="246" fill="#EDEDED" width="22" height="18"/>
<rect x="388" y="319" fill="#EDEDED" width="57" height="11"/>
<rect x="388" y="337" fill="#EDEDED" width="57" height="11"/>
<polygon fill="#EDEDED" points="532,431.5 500,401.5 529.5,349 560,349 599,388 597,417 570,431.5 548.5,411 "/>
<path d="M541,356.2c-5.8,0-10.5,4.7-10.5,10.5c0,10.5,10.5,23.1,10.5,23.1s10.5-12.6,10.5-23.1C551.5,360.9,546.8,356.2,541,356.2z
	 M541,373c-3.5,0-6.3-2.8-6.3-6.3s2.8-6.3,6.3-6.3s6.3,2.8,6.3,6.3S544.5,373,541,373z"/>
<polygon fill="#EDEDED" points="564,348.1 602.9,387 638,387 656,348.5 617.2,309.8 "/>
<path d="M599,315.2c-5.8,0-10.5,4.7-10.5,10.5c0,10.5,10.5,23.1,10.5,23.1s10.5-12.6,10.5-23.1C609.5,319.9,604.8,315.2,599,315.2z
	 M599,332c-3.5,0-6.3-2.8-6.3-6.3s2.8-6.3,6.3-6.3s6.3,2.8,6.3,6.3S602.5,332,599,332z"/>
<rect x="568.5" y="59.5" fill="none" stroke="#000000" stroke-width="5" stroke-miterlimit="10" width="61" height="56"/>
<text transform="matrix(1 0 0 1 564 46)" font-family="'MyriadPro-Regular'" font-size="13">Oauth</text>
</svg>
